# xmcd
#
# Track frame offsets: 
#        150
#        14020
#        34162
#        43406
#        57016
#        77674
#        93546
#        113222
#        118379
#        136137
#        147040
#        162043
#        180282
#        203071
#        218197
#        245489
#
# Disc length: 3427 seconds
#
# Revision: 0
# Processed by: cddbd v1.4PL0 Copyright (c) Steve Scherf et al.
# Submitted via: ExactAudioCopy v0.95a3
#
DISCID=df0d6110
DTITLE=Ansamblul Folklorika - Hai la joc, la joc, la joc!
DYEAR=2003
DGENRE=Folk
TTITLE0=Hora din Bucovina
TTITLE1=Batuta zmeilor
TTITLE2=Hora ca din bucium
TTITLE3=Joc de pe valea Dornelor
TTITLE4=Hora de la Prut
TTITLE5=Hora morarului
TTITLE6=Am o mindra mititica (sarba)
TTITLE7=Marioara de la Gorj (sarba)
TTITLE8=Ca la nunta
TTITLE9=Brau oltenesc
TTITLE10=Batuta de la Ilisesti
TTITLE11=Rapsodia Romana - Ciocarlia
TTITLE12=Hora flacailor
TTITLE13=Geampara Dunareana
TTITLE14=Sarba pentru toti
TTITLE15=Calusul
EXTD=
EXTT0=
EXTT1=
EXTT2=
EXTT3=
EXTT4=
EXTT5=
EXTT6=
EXTT7=
EXTT8=
EXTT9=
EXTT10=
EXTT11=
EXTT12=
EXTT13=
EXTT14=
EXTT15=
PLAYORDER=
